
<svg version="1.0" xmlns="http://www.w3.org/2000/svg"
     aria-hidden="true"
>

    <defs>
    <symbol id="full" viewBox="30 5 100 90">
<g transform="translate(0.000000,100.000000) scale(0.100000,-0.1000)"
   class="signet" style="fill: currentColor">
<path d="M615 888 c-22 -16 -40 -33 -40 -36 0 -4 6 -29 14 -55 l14 -48 55 3
55 3 14 49 c14 49 14 49 -14 73 -50 42 -55 42 -98 11z m65 -33 c11 -10 15 -25
12 -40 -3 -20 -10 -25 -33 -25 -41 0 -56 37 -27 63 25 21 27 21 48 2z"/>
<path d="M343 776 l-20 -63 49 -37 c27 -20 53 -36 58 -36 5 0 31 16 58 36 l49
37 -20 63 -21 64 -66 0 -66 0 -21 -64z m139 -11 c14 -30 5 -52 -27 -67 -19 -8
-31 -8 -50 0 -33 15 -40 35 -25 72 20 47 79 45 102 -5z"/>
<path d="M800 796 c-17 -45 -15 -53 17 -80 l33 -27 35 27 c25 19 34 32 29 43
-4 9 -9 26 -11 39 -5 19 -12 22 -49 22 -38 0 -46 -4 -54 -24z"/>
<path d="M921 669 c-19 -16 -21 -23 -14 -46 7 -21 17 -29 39 -31 25 -2 31 2
41 27 10 28 9 33 -16 50 -26 19 -27 19 -50 0z"/>
<path d="M160 619 c-41 -33 -74 -65 -74 -72 1 -6 14 -52 28 -100 l27 -88 101
3 101 3 33 96 32 97 -83 61 c-45 33 -84 61 -86 60 -2 0 -38 -27 -79 -60z m123
-11 c69 -48 79 -62 72 -99 -4 -19 -14 -50 -23 -69 l-17 -35 -74 0 -73 0 -19
50 c-30 80 -27 96 34 138 28 20 56 37 60 37 5 0 23 -10 40 -22z"/>
<path d="M416 463 c-9 -26 -16 -48 -16 -50 0 -2 20 -3 45 -3 25 0 45 5 45 10
0 6 -11 10 -25 10 -14 0 -25 5 -25 10 0 6 11 10 24 10 14 0 28 5 31 10 4 6 -5
10 -19 10 -14 0 -26 5 -26 10 0 6 14 10 30 10 17 0 30 5 30 10 0 6 -18 10 -39
10 -38 0 -40 -2 -55 -47z"/>
<path d="M518 460 c-13 -42 -14 -50 -2 -50 7 0 16 11 20 25 7 28 24 24 24 -6
0 -36 36 -22 49 19 7 20 15 43 17 50 3 6 -1 12 -10 12 -9 0 -18 -11 -22 -25
-8 -31 -22 -32 -26 -3 -6 44 -33 32 -50 -22z"/>
<path d="M650 495 c-15 -18 -6 -45 15 -45 8 0 15 -4 15 -8 0 -17 -13 -21 -31
-9 -20 12 -35 5 -24 -12 9 -15 58 -14 73 1 17 17 15 48 -2 48 -8 0 -18 5 -22
11 -5 9 1 10 20 5 19 -5 26 -3 26 9 0 20 -53 20 -70 0z"/>
<path d="M746 460 c-31 -43 -33 -50 -17 -50 11 0 21 6 24 13 3 9 10 9 30 -2
15 -8 30 -12 33 -9 11 11 -8 98 -21 98 -7 0 -29 -22 -49 -50z"/>
<path d="M852 478 c-6 -18 -13 -41 -17 -50 -5 -13 -2 -18 10 -18 9 0 19 9 22
20 3 11 13 20 23 20 13 0 17 -6 13 -20 -4 -13 0 -20 9 -20 8 0 21 21 30 50 14
44 14 50 1 50 -8 0 -17 -9 -20 -20 -3 -11 -14 -20 -25 -20 -15 0 -18 5 -13 20
4 14 2 20 -9 20 -8 0 -19 -14 -24 -32z"/>
<path d="M1120 429 c0 -14 -5 -41 -11 -58 -8 -22 -8 -36 -1 -43 7 -7 12 -4 15
8 13 47 16 90 7 104 -8 12 -10 9 -10 -11z"/>
<path d="M170 322 c0 -20 61 -101 104 -139 155 -136 480 -160 669 -50 l46 27
-21 36 -21 35 -251 -1 c-138 -1 -260 2 -271 6 -12 6 87 11 255 14 l275 5 -281
3 -282 2 -31 35 c-30 35 -31 35 -111 35 -44 0 -80 -4 -80 -8z m123 -20 c-6
-23 33 -73 52 -65 17 6 19 -5 6 -26 -7 -11 -16 -7 -42 20 -37 37 -51 89 -26
89 10 0 13 -7 10 -18z m91 -107 c-4 -10 0 -15 11 -15 10 0 14 5 10 13 -4 6 3
1 14 -13 18 -21 22 -23 31 -10 8 13 10 13 10 -2 0 -14 6 -16 30 -11 31 6 36
-1 21 -26 -8 -12 -16 -12 -55 0 -25 7 -46 17 -46 21 0 4 -9 8 -19 8 -20 0 -35
25 -25 41 9 15 24 10 18 -6z m556 5 c-8 -5 -108 -10 -230 -10 -122 0 -222 5
-230 10 -10 6 68 10 230 10 162 0 240 -4 230 -10z m8 -38 c5 -17 -67 -47 -81
-33 -8 8 -8 11 1 12 12 2 26 5 40 9 4 1 10 2 14 1 4 0 4 7 1 15 -4 11 -2 15 7
12 8 -2 16 -10 18 -16z m-133 -3 c-49 -10 -169 -9 -210 1 -18 5 26 8 110 8 99
0 128 -3 100 -9z m-206 -30 c11 17 32 6 25 -13 -3 -8 -22 -16 -43 -18 -32 -3
-37 -1 -33 14 2 10 8 15 13 12 5 -3 9 1 9 8 0 9 3 9 10 -2 8 -13 11 -13 19 -1z
m174 -9 c3 -11 1 -20 -3 -20 -5 0 -15 -3 -24 -6 -19 -7 -21 11 -3 31 17 20 24
18 30 -5z m37 10 c0 -5 7 -7 15 -4 8 4 15 1 15 -5 0 -6 -11 -11 -25 -11 -16 0
-25 6 -25 15 0 8 5 15 10 15 6 0 10 -4 10 -10z m-147 -12 c3 -10 7 -10 17 -1
10 9 16 8 28 -3 17 -18 15 -21 -18 -24 -43 -4 -50 -1 -50 20 0 22 16 27 23 8z"/>
<path d="M618 323 c34 -2 90 -2 125 0 34 2 6 3 -63 3 -69 0 -97 -1 -62 -3z"/>
<path d="M995 305 c-31 -30 -32 -73 -4 -109 45 -57 139 -19 139 56 0 39 -40
78 -80 78 -19 0 -40 -9 -55 -25z m91 -37 c3 -5 3 -20 0 -34 -5 -19 -13 -24
-36 -24 -24 0 -31 5 -36 27 -5 19 -2 30 10 38 18 13 52 9 62 -7z"/>
<path d="M518 293 c84 -2 219 -2 300 0 81 1 12 3 -153 3 -165 0 -231 -2 -147
-3z"/>
</g>

    </symbol>

        <symbol id="signet" viewBox="14 5 100 90">
            <g transform="translate(0.000000,100.000000) scale(0.100000,-0.1000)"
               class="signet" style="fill: currentColor">
                <path d="M615 888 c-22 -16 -40 -33 -40 -36 0 -4 6 -29 14 -55 l14 -48 55 3
55 3 14 49 c14 49 14 49 -14 73 -50 42 -55 42 -98 11z m65 -33 c11 -10 15 -25
12 -40 -3 -20 -10 -25 -33 -25 -41 0 -56 37 -27 63 25 21 27 21 48 2z"/>
                <path d="M343 776 l-20 -63 49 -37 c27 -20 53 -36 58 -36 5 0 31 16 58 36 l49
37 -20 63 -21 64 -66 0 -66 0 -21 -64z m139 -11 c14 -30 5 -52 -27 -67 -19 -8
-31 -8 -50 0 -33 15 -40 35 -25 72 20 47 79 45 102 -5z"/>
                <path d="M800 796 c-17 -45 -15 -53 17 -80 l33 -27 35 27 c25 19 34 32 29 43
-4 9 -9 26 -11 39 -5 19 -12 22 -49 22 -38 0 -46 -4 -54 -24z"/>
                <path d="M921 669 c-19 -16 -21 -23 -14 -46 7 -21 17 -29 39 -31 25 -2 31 2
41 27 10 28 9 33 -16 50 -26 19 -27 19 -50 0z"/>
                <path d="M160 619 c-41 -33 -74 -65 -74 -72 1 -6 14 -52 28 -100 l27 -88 101
3 101 3 33 96 32 97 -83 61 c-45 33 -84 61 -86 60 -2 0 -38 -27 -79 -60z m123
-11 c69 -48 79 -62 72 -99 -4 -19 -14 -50 -23 -69 l-17 -35 -74 0 -73 0 -19
50 c-30 80 -27 96 34 138 28 20 56 37 60 37 5 0 23 -10 40 -22z"/>
                <path d="M416 463 c-9 -26 -16 -48 -16 -50 0 -2 20 -3 45 -3 25 0 45 5 45 10
0 6 -11 10 -25 10 -14 0 -25 5 -25 10 0 6 11 10 24 10 14 0 28 5 31 10 4 6 -5
10 -19 10 -14 0 -26 5 -26 10 0 6 14 10 30 10 17 0 30 5 30 10 0 6 -18 10 -39
10 -38 0 -40 -2 -55 -47z"/>
                <path d="M518 460 c-13 -42 -14 -50 -2 -50 7 0 16 11 20 25 7 28 24 24 24 -6
0 -36 36 -22 49 19 7 20 15 43 17 50 3 6 -1 12 -10 12 -9 0 -18 -11 -22 -25
-8 -31 -22 -32 -26 -3 -6 44 -33 32 -50 -22z"/>
                <path d="M650 495 c-15 -18 -6 -45 15 -45 8 0 15 -4 15 -8 0 -17 -13 -21 -31
-9 -20 12 -35 5 -24 -12 9 -15 58 -14 73 1 17 17 15 48 -2 48 -8 0 -18 5 -22
11 -5 9 1 10 20 5 19 -5 26 -3 26 9 0 20 -53 20 -70 0z"/>
                <path d="M746 460 c-31 -43 -33 -50 -17 -50 11 0 21 6 24 13 3 9 10 9 30 -2
15 -8 30 -12 33 -9 11 11 -8 98 -21 98 -7 0 -29 -22 -49 -50z"/>
                <path d="M852 478 c-6 -18 -13 -41 -17 -50 -5 -13 -2 -18 10 -18 9 0 19 9 22
20 3 11 13 20 23 20 13 0 17 -6 13 -20 -4 -13 0 -20 9 -20 8 0 21 21 30 50 14
44 14 50 1 50 -8 0 -17 -9 -20 -20 -3 -11 -14 -20 -25 -20 -15 0 -18 5 -13 20
4 14 2 20 -9 20 -8 0 -19 -14 -24 -32z"/>
                <path d="M1120 429 c0 -14 -5 -41 -11 -58 -8 -22 -8 -36 -1 -43 7 -7 12 -4 15
8 13 47 16 90 7 104 -8 12 -10 9 -10 -11z"/>
                <path d="M170 322 c0 -20 61 -101 104 -139 155 -136 480 -160 669 -50 l46 27
-21 36 -21 35 -251 -1 c-138 -1 -260 2 -271 6 -12 6 87 11 255 14 l275 5 -281
3 -282 2 -31 35 c-30 35 -31 35 -111 35 -44 0 -80 -4 -80 -8z m123 -20 c-6
-23 33 -73 52 -65 17 6 19 -5 6 -26 -7 -11 -16 -7 -42 20 -37 37 -51 89 -26
89 10 0 13 -7 10 -18z m91 -107 c-4 -10 0 -15 11 -15 10 0 14 5 10 13 -4 6 3
1 14 -13 18 -21 22 -23 31 -10 8 13 10 13 10 -2 0 -14 6 -16 30 -11 31 6 36
-1 21 -26 -8 -12 -16 -12 -55 0 -25 7 -46 17 -46 21 0 4 -9 8 -19 8 -20 0 -35
25 -25 41 9 15 24 10 18 -6z m556 5 c-8 -5 -108 -10 -230 -10 -122 0 -222 5
-230 10 -10 6 68 10 230 10 162 0 240 -4 230 -10z m8 -38 c5 -17 -67 -47 -81
-33 -8 8 -8 11 1 12 12 2 26 5 40 9 4 1 10 2 14 1 4 0 4 7 1 15 -4 11 -2 15 7
12 8 -2 16 -10 18 -16z m-133 -3 c-49 -10 -169 -9 -210 1 -18 5 26 8 110 8 99
0 128 -3 100 -9z m-206 -30 c11 17 32 6 25 -13 -3 -8 -22 -16 -43 -18 -32 -3
-37 -1 -33 14 2 10 8 15 13 12 5 -3 9 1 9 8 0 9 3 9 10 -2 8 -13 11 -13 19 -1z
m174 -9 c3 -11 1 -20 -3 -20 -5 0 -15 -3 -24 -6 -19 -7 -21 11 -3 31 17 20 24
18 30 -5z m37 10 c0 -5 7 -7 15 -4 8 4 15 1 15 -5 0 -6 -11 -11 -25 -11 -16 0
-25 6 -25 15 0 8 5 15 10 15 6 0 10 -4 10 -10z m-147 -12 c3 -10 7 -10 17 -1
10 9 16 8 28 -3 17 -18 15 -21 -18 -24 -43 -4 -50 -1 -50 20 0 22 16 27 23 8z"/>
                <path d="M618 323 c34 -2 90 -2 125 0 34 2 6 3 -63 3 -69 0 -97 -1 -62 -3z"/>
                <path d="M995 305 c-31 -30 -32 -73 -4 -109 45 -57 139 -19 139 56 0 39 -40
78 -80 78 -19 0 -40 -9 -55 -25z m91 -37 c3 -5 3 -20 0 -34 -5 -19 -13 -24
-36 -24 -24 0 -31 5 -36 27 -5 19 -2 30 10 38 18 13 52 9 62 -7z"/>
                <path d="M518 293 c84 -2 219 -2 300 0 81 1 12 3 -153 3 -165 0 -231 -2 -147
-3z"/>
            </g>

        </symbol>
    </defs>
</svg>
